<svg width="180" height="60" viewBox="0 0 180 60" xmlns="http://www.w3.org/2000/svg">
  <rect x="0" y="0" width="180" height="60" rx="10" ry="10" fill="#000000" />
  
  <!-- Apple Logo -->
  <path d="M45 18 C45 15, 42 12, 39 12 C36 12, 33 15, 33 18 C33 21, 36 24, 39 24 C42 24, 45 21, 45 18 M33 30 C30 27, 27 24, 27 18 C27 12, 30 9, 33 9 C36 9, 39 12, 39 12 C39 12, 42 9, 45 9 C48 9, 51 12, 51 18 C51 24, 48 27, 45 30 L39 36 L33 30" fill="#FFFFFF" />
  
  <!-- Text -->
  <text x="65" y="25" font-family="Arial" font-size="12" font-weight="normal" fill="#FFFFFF">Download on the</text>
  <text x="65" y="45" font-family="Arial" font-size="20" font-weight="bold" fill="#FFFFFF">App Store</text>
</svg> 