<svg width="300" height="600" viewBox="0 0 300 600" xmlns="http://www.w3.org/2000/svg">
  <!-- Phone Outline -->
  <rect x="10" y="10" width="280" height="580" rx="30" ry="30" fill="#1a1a2e" />
  <rect x="20" y="20" width="260" height="560" rx="25" ry="25" fill="#f5f7ff" />
  
  <!-- App Header -->
  <rect x="20" y="20" width="260" height="80" rx="25" ry="25" fill="#6200ea" />
  
  <!-- App Logo in Header -->
  <circle cx="60" cy="60" r="25" fill="#9d46ff" />
  <path d="M50 40 L50 80 L60 80 L60 60 L70 60 L70 80 L80 80 L80 40 L70 40 L70 50 L60 50 L60 40 Z" fill="white" />
  
  <!-- App Title in Header -->
  <text x="100" y="65" font-family="Arial" font-size="18" font-weight="bold" fill="white">HistoriBuddy</text>
  
  <!-- Camera View Area -->
  <rect x="30" y="110" width="240" height="200" rx="10" ry="10" fill="#e0e0e0" />
  
  <!-- Historical Object in Camera View (Simplified Colosseum) -->
  <path d="M60 260 L60 190 C60 190, 140 150, 240 190 L240 260 Z" fill="#bdbdbd" />
  <path d="M80 260 L80 200 L90 200 L90 260 Z" fill="#9e9e9e" />
  <path d="M110 260 L110 200 L120 200 L120 260 Z" fill="#9e9e9e" />
  <path d="M140 260 L140 200 L150 200 L150 260 Z" fill="#9e9e9e" />
  <path d="M170 260 L170 200 L180 200 L180 260 Z" fill="#9e9e9e" />
  <path d="M200 260 L200 200 L210 200 L210 260 Z" fill="#9e9e9e" />
  
  <!-- Camera Button -->
  <circle cx="150" cy="330" r="25" stroke="#6200ea" stroke-width="3" fill="white" />
  <circle cx="150" cy="330" r="20" fill="#6200ea" />
  
  <!-- Chat Interface -->
  <rect x="30" y="370" width="240" height="200" rx="10" ry="10" fill="white" stroke="#e0e0e0" stroke-width="2" />
  
  <!-- Mascot Avatar -->
  <circle cx="60" cy="400" r="20" fill="#ff6d00" />
  <circle cx="52" cy="395" r="4" fill="white" />
  <circle cx="68" cy="395" r="4" fill="white" />
  <path d="M50 410 C50 410, 60 420, 70 410" stroke="white" stroke-width="2" fill="transparent" />
  
  <!-- Chat Bubbles -->
  <rect x="90" y="385" width="170" height="40" rx="10" ry="10" fill="#f0f0f0" />
  <rect x="90" y="435" width="150" height="40" rx="10" ry="10" fill="#f0f0f0" />
  <rect x="90" y="485" width="180" height="40" rx="10" ry="10" fill="#f0f0f0" />
  
  <!-- Text Input Area -->
  <rect x="30" y="540" width="240" height="30" rx="15" ry="15" fill="white" stroke="#e0e0e0" stroke-width="2" />
  <circle cx="250" cy="555" r="12" fill="#6200ea" />
  <text x="246" y="560" font-family="Arial" font-size="16" font-weight="bold" fill="white">→</text>
</svg> 